ffmpeg version N-92273-g59a35fe1f6 Copyright (c) 2000-2018 the FFmpeg developers
  built with gcc 8.2.1 (GCC) 20181017
  configuration: --enable-gpl --enable-version3 --enable-sdl2 --enable-fontconfig --enable-gnutls --enable-iconv --enable-libass --enable-libbluray --enable-libfreetype --enable-libmp3lame --enable-libopencore-amrnb --enable-libopencore-amrwb --enable-libopenjpeg --enable-libopus --enable-libshine --enable-libsnappy --enable-libsoxr --enable-libtheora --enable-libtwolame --enable-libvpx --enable-libwavpack --enable-libwebp --enable-libx264 --enable-libx265 --enable-libxml2 --enable-libzimg --enable-lzma --enable-zlib --enable-gmp --enable-libvidstab --enable-libvorbis --enable-libvo-amrwbenc --enable-libmysofa --enable-libspeex --enable-libxvid --enable-libaom --enable-libmfx --enable-amf --enable-ffnvcodec --enable-cuvid --enable-d3d11va --enable-nvenc --enable-nvdec --enable-dxva2 --enable-avisynth
  libavutil      56. 20.100 / 56. 20.100
  libavcodec     58. 34.100 / 58. 34.100
  libavformat    58. 19.102 / 58. 19.102
  libavdevice    58.  4.106 / 58.  4.106
  libavfilter     7. 38.100 /  7. 38.100
  libswscale      5.  2.100 /  5.  2.100
  libswresample   3.  2.100 /  3.  2.100
  libpostproc    55.  2.100 / 55.  2.100
Input #0, mov,mp4,m4a,3gp,3g2,mj2, from '4.m4a':
  Metadata:
    major_brand     : mp42
    minor_version   : 0
    compatible_brands: isommp42
    creation_time   : 2018-10-28T03:19:38.000000Z
    com.android.version: 7.0
  Duration: 00:00:47.77, start: 0.000000, bitrate: 130 kb/s
    Stream #0:0(eng): Audio: aac (LC) (mp4a / 0x6134706D), 48000 Hz, stereo, fltp, 128 kb/s (default)
    Metadata:
      creation_time   : 2018-10-28T03:19:38.000000Z
      handler_name    : SoundHandle
Stream mapping:
  Stream #0:0 -> #0:0 (aac (native) -> flac (native))
Press [q] to stop, [?] for help
[flac @ 000001c0a41cf940] encoding as 24 bits-per-sample
Output #0, flac, to 'formatted_file.flac':
  Metadata:
    major_brand     : mp42
    minor_version   : 0
    compatible_brands: isommp42
    com.android.version: 7.0
    encoder         : Lavf58.19.102
    Stream #0:0(eng): Audio: flac, 48000 Hz, mono, s32 (24 bit), 128 kb/s (default)
    Metadata:
      creation_time   : 2018-10-28T03:19:38.000000Z
      handler_name    : SoundHandle
      encoder         : Lavc58.34.100 flac
size=    3694kB time=00:00:47.76 bitrate= 633.5kbits/s speed= 373x    
video:0kB audio:3686kB subtitle:0kB other streams:0kB global headers:0kB muxing overhead: 0.222132%
